<svg width="44" height="44" viewBox="0 0 44 44" fill="none" xmlns="http://www.w3.org/2000/svg">
<path d="M22.0034 44C34.1538 44 44.0038 34.1503 44.0038 22C44.0038 9.84973 34.1538 0 22.0034 0C9.85286 0 0.00292969 9.84973 0.00292969 22C0.00292969 34.1503 9.85286 44 22.0034 44Z" fill="#141414"/>
<path d="M22.0032 38.348C31.0322 38.348 38.3516 31.0288 38.3516 22C38.3516 12.9711 31.0322 5.65186 22.0032 5.65186C12.9742 5.65186 5.65479 12.9711 5.65479 22C5.65479 31.0288 12.9742 38.348 22.0032 38.348Z" fill="#141414" stroke="#00FA62" stroke-width="0.507692" stroke-miterlimit="10"/>
<path d="M32.079 23.5788C32.9531 18.0182 29.1539 12.8017 23.5931 11.9276C18.0324 11.0534 12.8159 14.8526 11.9417 20.4132C11.0675 25.9739 14.8668 31.1903 20.4275 32.0645C25.9883 32.9386 31.2048 29.1394 32.079 23.5788Z" fill="#141414" stroke="#00FA62" stroke-width="0.507692" stroke-miterlimit="10"/>
<path d="M25.4353 25.436C27.3321 23.5392 27.3321 20.4639 25.4353 18.5671C23.5385 16.6704 20.4631 16.6704 18.5663 18.5671C16.6695 20.4639 16.6695 23.5392 18.5663 25.436C20.4631 27.3327 23.5385 27.3327 25.4353 25.436Z" fill="#141414" stroke="#00FA62" stroke-width="0.507692" stroke-miterlimit="10"/>
</svg>
