<svg width="44" height="44" viewBox="0 0 44 44" fill="none" xmlns="http://www.w3.org/2000/svg">
<path d="M22.0044 -3.8147e-06C22.0044 -3.8147e-06 22.0044 43.0929 22.0044 44" stroke="#141414" stroke-width="2.0625" stroke-miterlimit="10"/>
<path d="M44.0028 21.998C44.0028 21.998 0.909018 21.998 0.00195312 21.998" stroke="#141414" stroke-width="2.0625" stroke-miterlimit="10"/>
<path d="M37.5593 6.44331C37.5593 6.44331 7.0868 36.9152 6.44531 37.5567" stroke="#141414" stroke-width="2.0625" stroke-miterlimit="10"/>
<path d="M37.5593 37.5526C37.5593 37.5526 7.0868 7.08069 6.44531 6.43922" stroke="#141414" stroke-width="2.0625" stroke-miterlimit="10"/>
<path d="M42.5605 14.1614C42.5605 14.1614 2.2942 29.5077 1.44434 29.8304" stroke="#141414" stroke-width="2.0625" stroke-miterlimit="10"/>
<path d="M29.8412 42.5536C29.8412 42.5536 14.4947 2.28805 14.1719 1.43821" stroke="#141414" stroke-width="2.0625" stroke-miterlimit="10"/>
<path d="M42.0826 30.9949C42.0826 30.9949 2.75601 13.3728 1.93066 13.0051" stroke="#141414" stroke-width="2.0625" stroke-miterlimit="10"/>
<path d="M13.0073 42.0756C13.0073 42.0756 30.6297 2.74975 30.9975 1.92442" stroke="#141414" stroke-width="2.0625" stroke-miterlimit="10"/>
</svg>
