<svg width="1280" height="832" viewBox="0 0 1280 832" fill="none" xmlns="http://www.w3.org/2000/svg">
<g clip-path="url(#clip0_6_17)">
<ellipse cx="632" cy="836" rx="181" ry="178" fill="#5BC560"/>
<path d="M879.5 848.5C879.5 985.468 768.69 1096.5 632 1096.5C495.31 1096.5 384.5 985.468 384.5 848.5C384.5 711.532 495.31 600.5 632 600.5C768.69 600.5 879.5 711.532 879.5 848.5Z" stroke="#67DE6D"/>
<path d="M959.5 846.5C959.5 1024.88 812.657 1169.5 631.5 1169.5C450.343 1169.5 303.5 1024.88 303.5 846.5C303.5 668.119 450.343 523.5 631.5 523.5C812.657 523.5 959.5 668.119 959.5 846.5Z" stroke="#67DE6D"/>
<path d="M1031.5 830.5C1031.5 1040.34 851.545 1210.5 629.5 1210.5C407.455 1210.5 227.5 1040.34 227.5 830.5C227.5 620.658 407.455 450.5 629.5 450.5C851.545 450.5 1031.5 620.658 1031.5 830.5Z" stroke="#67DE6D"/>
<path d="M1091.5 827C1091.5 1076.34 882.433 1278.5 624.5 1278.5C366.567 1278.5 157.5 1076.34 157.5 827C157.5 577.659 366.567 375.5 624.5 375.5C882.433 375.5 1091.5 577.659 1091.5 827Z" stroke="#67DE6D"/>
<path d="M1227.5 828.5C1227.5 1138.86 959.796 1390.5 629.5 1390.5C299.204 1390.5 31.5 1138.86 31.5 828.5C31.5 518.145 299.204 266.5 629.5 266.5C959.796 266.5 1227.5 518.145 1227.5 828.5Z" stroke="#67DE6D"/>
<path d="M577.211 735.972C577.211 731.569 580.78 728 585.183 728H648.099C650.881 728 652.396 731.248 650.609 733.38V733.38L644.925 740.38V740.38C642.963 742.644 640.115 743.945 637.119 743.945H585.183C580.78 743.945 577.211 740.375 577.211 735.972V735.972Z" fill="#1E1E1E"/>
<rect width="15.5892" height="91.7682" rx="7.79459" transform="matrix(0.738885 0.673832 -0.638036 0.770006 633.551 729.685)" fill="#1E1E1E"/>
<path d="M672.789 807.028C672.789 811.431 669.22 815 664.817 815H601.901C599.119 815 597.604 811.752 599.391 809.62V809.62L605.075 802.62V802.62C607.037 800.356 609.885 799.055 612.881 799.055H664.817C669.22 799.055 672.789 802.625 672.789 807.028V807.028Z" fill="#1E1E1E"/>
<rect width="15.5892" height="91.7682" rx="7.79459" transform="matrix(-0.738885 -0.673832 0.638036 -0.770006 616.449 813.315)" fill="#1E1E1E"/>
</g>
<defs>
<clipPath id="clip0_6_17">
<rect width="1280" height="832" fill="white"/>
</clipPath>
</defs>
</svg>
